<svg width="154" height="69" viewBox="0 0 154 69" fill="none" xmlns="http://www.w3.org/2000/svg">
<path d="M3.728 53.872C3.728 56.688 5.47733 58.096 8.976 58.096C10 58.096 11.0667 57.9467 12.176 57.648C16.912 53.6373 20.496 48.048 22.928 40.88C24.2933 36.9973 24.976 33.584 24.976 30.64C24.976 27.6533 24.4853 25.0293 23.504 22.768C19.2373 21.7867 16.5493 21.2533 15.44 21.168C14.3733 21.04 13.2853 20.976 12.176 20.976C11.0667 20.976 9.91467 21.232 8.72 21.744C8.29333 22.9813 8.08 24.0907 8.08 25.072C8.08 28.1867 8.67733 30.6827 9.872 32.56C10.128 32.6027 10.4907 32.624 10.96 32.624C13.8187 32.624 16.3147 31.984 18.448 30.704C20.5813 29.424 21.904 28.1227 22.416 26.8C22.544 26.3733 22.6933 26.2667 22.864 26.48C23.0773 26.6507 23.12 26.8853 22.992 27.184C22.3947 28.8053 21.0293 30.2987 18.896 31.664C16.8053 33.0293 14.2453 33.712 11.216 33.712C11.1307 33.712 11.0453 33.712 10.96 33.712H10.704C11.9413 35.0773 13.456 35.824 15.248 35.952C15.4187 35.952 15.4827 36.016 15.44 36.144C15.44 36.272 15.3547 36.336 15.184 36.336C13.0933 36.208 11.344 35.312 9.936 33.648C7.67467 33.4347 5.81867 32.6667 4.368 31.344C2.74667 29.808 1.936 28.2507 1.936 26.672C1.936 25.0933 2.512 23.6213 3.664 22.256C4.816 20.8907 6.62933 19.9947 9.104 19.568C10.4267 17.4773 12.2187 16.1973 14.48 15.728C14.8213 15.6853 15.312 15.664 15.952 15.664C16.6347 15.664 17.6373 15.92 18.96 16.432C20.3253 16.9013 21.6053 17.9467 22.8 19.568C23.184 20.1653 23.5893 20.8267 24.016 21.552C29.8187 23.0453 33.1253 23.8773 33.936 24.048C35.7707 21.5307 37.6053 20.1227 39.44 19.824C39.696 19.7813 39.824 19.8453 39.824 20.016C39.7813 20.3573 39.568 20.5707 39.184 20.656C37.9467 20.8693 36.7093 22.0853 35.472 24.304C37.392 24.6453 39.184 24.816 40.848 24.816C45.1147 24.816 48.464 23.7493 50.896 21.616C51.1947 21.4027 51.344 21.4667 51.344 21.808C51.344 22.1493 51.1947 22.4267 50.896 22.64C48.6773 24.6027 45.3067 25.584 40.784 25.584C39.0347 25.584 37.1147 25.4347 35.024 25.136C34.256 26.7147 33.104 29.6373 31.568 33.904C30.032 38.128 28.816 41.2427 27.92 43.248C23.824 52.5493 18.384 57.712 11.6 58.736C8.528 61.04 5.54133 62.192 2.64 62.192C1.44533 62.192 0.848 62.0853 0.848 61.872C0.848 61.6587 1.04 61.5733 1.424 61.616C1.76533 61.6587 2.192 61.68 2.704 61.68C5.30667 61.68 7.93067 60.7413 10.576 58.864C10.2347 58.9067 9.70133 58.928 8.976 58.928C5.648 58.928 3.6 57.7333 2.832 55.344C2.61867 54.704 2.512 54.064 2.512 53.424C2.512 51.632 3.30133 49.712 4.88 47.664C8.08 43.5253 12.9013 41.1147 19.344 40.432C19.6 40.3893 19.728 40.496 19.728 40.752C19.6853 41.008 19.536 41.1787 19.28 41.264C14.032 42.0747 9.82933 44.2507 6.672 47.792C4.70933 49.968 3.728 51.9947 3.728 53.872ZM24.656 23.024C25.424 25.1573 25.808 27.6533 25.808 30.512C25.808 33.3707 25.1467 36.72 23.824 40.56C21.52 47.4293 18.1067 52.9547 13.584 57.136C17.7653 55.3013 21.6267 50.3947 25.168 42.416C25.6373 41.3493 26.4693 39.408 27.664 36.592C30.096 30.8747 31.9947 26.9707 33.36 24.88C30.3307 24.368 27.4293 23.7493 24.656 23.024ZM21.968 20.08C20.816 18.544 19.6213 17.52 18.384 17.008C17.1467 16.496 16.2507 16.24 15.696 16.24C13.136 16.24 11.1733 17.3067 9.808 19.44C10.5333 19.3547 11.3227 19.312 12.176 19.312C14.5653 19.312 18.0853 19.9307 22.736 21.168L21.968 20.08ZM9.04 32.432C7.888 30.5547 7.312 28.4 7.312 25.968C7.312 24.6453 7.52533 23.344 7.952 22.064C5.60533 23.1733 4.432 24.8587 4.432 27.12C4.432 28.016 4.70933 28.912 5.264 29.808C6.07467 31.1307 7.33333 32.0053 9.04 32.432ZM38.5995 44.912C37.3622 46.576 36.4875 48.0267 35.9755 49.264C35.4635 50.5013 35.2075 51.4187 35.2075 52.016C35.2075 52.6133 35.3995 52.912 35.7835 52.912C36.9355 52.912 39.2608 50.352 42.7595 45.232C44.1248 43.4827 44.8075 43.504 44.8075 45.296C44.7222 46.4053 44.6795 47.344 44.6795 48.112C44.6795 51.3547 45.3622 52.976 46.7275 52.976C48.1782 52.976 49.9488 51.8027 52.0395 49.456C52.1675 49.328 52.3168 49.4133 52.4875 49.712C52.3595 50.0107 51.9115 50.544 51.1435 51.312C50.4182 52.0373 49.5008 52.6987 48.3915 53.296C47.2822 53.8933 46.4288 54.192 45.8315 54.192C45.2768 54.192 44.8288 54.128 44.4875 54C42.9088 53.4453 42.1195 51.2693 42.1195 47.472C40.4128 50.16 39.1755 51.8667 38.4075 52.592C37.2128 53.7013 36.2315 54.256 35.4635 54.256C35.4208 54.256 35.3568 54.256 35.2715 54.256C33.8635 54.0427 33.1595 53.104 33.1595 51.44C33.1595 49.7333 33.6928 47.856 34.7595 45.808C35.8688 43.7173 37.3195 41.84 39.1115 40.176C40.9035 38.512 42.6955 37.68 44.4875 37.68C45.3408 37.68 46.1728 37.8933 46.9835 38.32C47.7088 38.7467 48.0715 39.4293 48.0715 40.368C48.0715 41.264 47.6662 41.776 46.8555 41.904C47.1542 41.392 47.3035 40.9227 47.3035 40.496C47.3035 40.0267 47.0902 39.6853 46.6635 39.472C46.2368 39.2587 45.8528 39.152 45.5115 39.152C43.6768 39.152 41.3728 41.072 38.5995 44.912ZM57.707 34.352C58.0057 34.352 58.155 34.4587 58.155 34.672C58.155 34.8427 57.899 35.2267 57.387 35.824C56.2777 37.1893 55.1897 37.4453 54.123 36.592C53.9523 36.464 53.931 36.336 54.059 36.208C55.5523 34.9707 56.7683 34.352 57.707 34.352ZM52.779 50.608C52.779 51.888 53.163 52.528 53.931 52.528C54.3577 52.528 55.403 51.8453 57.067 50.48C58.7737 49.072 59.691 48.304 59.819 48.176C59.947 48.048 60.0537 48.0267 60.139 48.112C60.2243 48.1547 60.267 48.2187 60.267 48.304C60.267 48.3467 60.2457 48.4107 60.203 48.496C59.563 49.5627 58.219 50.8427 56.171 52.336C54.8057 53.4453 53.6537 54 52.715 54C51.2643 54 50.539 52.7627 50.539 50.288C50.539 49.8187 50.5817 49.1573 50.667 48.304C50.7523 47.408 51.435 44.6987 52.715 40.176C52.8003 39.8347 53.2697 39.664 54.123 39.664C55.019 39.664 55.467 39.92 55.467 40.432C55.467 40.9013 55.2963 41.5413 54.955 42.352C54.6563 43.12 54.2937 43.5467 53.867 43.632C53.6537 43.6747 53.419 44.7413 53.163 46.832C52.907 48.9227 52.779 50.1813 52.779 50.608ZM72.4015 49.904C72.4015 52.5493 73.0842 53.872 74.4495 53.872C75.3882 53.872 76.3268 53.296 77.2655 52.144C78.8015 50.096 79.5695 47.856 79.5695 45.424C79.5695 44.8693 79.5268 44.336 79.4415 43.824L78.6735 42.736C78.2042 42.0533 77.9695 41.5413 77.9695 41.2C78.0122 40.8587 78.1188 40.5173 78.2895 40.176C78.4602 39.8347 78.9082 39.664 79.6335 39.664C80.4015 39.664 80.9135 39.9413 81.1695 40.496C81.5535 41.392 83.0042 41.84 85.5215 41.84L87.3135 41.712C87.5695 41.6693 87.6975 41.6907 87.6975 41.776C87.6975 42.0747 86.8442 42.416 85.1375 42.8L84.1135 42.992C84.0282 42.992 83.8148 42.992 83.4735 42.992C83.1322 42.992 82.3642 42.9067 81.1695 42.736C81.2975 43.4613 81.3615 44.4 81.3615 45.552C81.3615 46.6613 81.0842 47.9627 80.5295 49.456C80.0175 50.9067 79.2282 52.1227 78.1615 53.104C75.6015 55.408 73.4682 55.6213 71.7615 53.744C70.8228 52.72 70.2682 51.0987 70.0975 48.88C69.9695 46.8747 69.9482 45.7867 70.0335 45.616C69.1375 47.6213 67.9002 49.7333 66.3215 51.952C64.7855 54 63.1855 55.024 61.5215 55.024C59.9002 55.024 59.0895 54.1493 59.0895 52.4C59.0895 50.352 59.9428 47.5147 61.6495 43.888C62.2895 42.608 62.8655 41.584 63.3775 40.816C63.8895 40.048 64.6575 39.664 65.6815 39.664C66.7908 39.664 67.0682 39.984 66.5135 40.624C65.0628 42.2453 63.8895 44.4 62.9935 47.088C62.1402 49.776 61.7135 51.5467 61.7135 52.4C61.7135 53.2533 61.9695 53.68 62.4815 53.68C63.2068 53.68 64.2522 52.8693 65.6175 51.248C66.9828 49.6267 68.3268 47.344 69.6495 44.4C69.8202 44.016 69.8415 43.3973 69.7135 42.544C69.7988 41.8187 70.3962 41.392 71.5055 41.264C72.4868 41.2213 72.9775 41.4987 72.9775 42.096C72.9775 42.1813 72.9135 42.8213 72.7855 44.016C72.5295 46.448 72.4015 48.4107 72.4015 49.904ZM93.408 38.64L99.296 38.768C99.552 38.768 99.7867 38.832 100 38.96C100.213 39.088 100.32 39.2373 100.32 39.408C100.32 39.92 99.936 40.5387 99.168 41.264C98.4427 41.9467 97.7813 42.3307 97.184 42.416C91.5093 47.2373 88.16 50.6507 87.136 52.656C91.6587 52.1013 94.5387 51.824 95.776 51.824C97.056 51.824 97.9093 51.9947 98.336 52.336C98.7627 52.6347 98.912 52.9973 98.784 53.424C98.656 53.8507 98.4427 54.2773 98.144 54.704C97.8453 55.1733 97.504 55.5573 97.12 55.856C96.7787 56.1973 96.5227 56.368 96.352 56.368C96.1813 56.368 96.096 56.2827 96.096 56.112C96.096 55.984 96.3093 55.7067 96.736 55.28C97.1627 54.896 97.3547 54.576 97.312 54.32C97.2267 53.8507 96.1813 53.616 94.176 53.616C92.1707 53.616 90.208 53.7013 88.288 53.872C86.4107 54.0427 85.4507 54.128 85.408 54.128H84.96C84.6187 53.9147 84.448 53.6587 84.448 53.36C84.448 53.0613 84.512 52.8267 84.64 52.656C84.9387 51.9733 85.8987 50.8 87.52 49.136C89.184 47.4293 90.9973 45.616 92.96 43.696C94.9227 41.7333 96.16 40.4747 96.672 39.92C95.9467 39.792 95.2213 39.728 94.496 39.728C91.808 39.728 89.888 40.304 88.736 41.456C88.0107 42.224 87.52 42.608 87.264 42.608C87.136 42.608 87.072 42.5013 87.072 42.288C87.712 40.752 88.4373 39.664 89.248 39.024C90.3147 38.768 91.7013 38.64 93.408 38.64ZM113.557 42.48L116.565 42.16C116.693 42.16 116.757 42.2027 116.757 42.288C116.757 42.3733 116.693 42.48 116.565 42.608L116.053 43.056C115.029 43.5253 113.983 43.76 112.917 43.76C111.85 43.76 111.146 43.6747 110.805 43.504C110.805 43.5893 110.805 43.824 110.805 44.208C110.805 44.592 110.591 45.424 110.165 46.704C109.781 47.984 109.183 49.328 108.373 50.736C107.562 52.144 106.687 53.168 105.749 53.808C104.81 54.448 104.106 54.768 103.637 54.768C103.21 54.768 102.741 54.704 102.229 54.576C101.759 54.448 101.226 54 100.629 53.232C99.9458 52.464 99.6045 51.3973 99.6045 50.032C99.6045 48.624 99.8178 47.1947 100.245 45.744C101.823 40.9653 103.765 38.4693 106.069 38.256C106.367 37.9147 106.73 37.744 107.157 37.744C107.626 37.744 108.223 37.9573 108.949 38.384C110.229 39.1947 110.933 40.1973 111.061 41.392C111.658 42.1173 112.49 42.48 113.557 42.48ZM106.773 40.432C106.047 40.6027 105.258 41.4347 104.405 42.928C103.551 44.4213 102.911 45.9147 102.485 47.408C102.101 48.9013 101.909 50.1813 101.909 51.248C101.909 52.272 102.293 52.976 103.061 53.36C103.274 53.4453 103.509 53.488 103.765 53.488C104.789 53.488 105.941 52.4853 107.22 50.48C107.946 49.328 108.522 48.048 108.949 46.64C109.375 45.232 109.589 44.336 109.589 43.952C109.589 43.568 109.567 43.312 109.525 43.184C108.714 43.056 108.074 42.7573 107.605 42.288C107.135 41.8187 106.879 41.392 106.837 41.008L106.773 40.432ZM128.619 42.48L131.627 42.16C131.755 42.16 131.819 42.2027 131.819 42.288C131.819 42.3733 131.755 42.48 131.627 42.608L131.115 43.056C130.091 43.5253 129.046 43.76 127.979 43.76C126.912 43.76 126.208 43.6747 125.867 43.504C125.867 43.5893 125.867 43.824 125.867 44.208C125.867 44.592 125.654 45.424 125.227 46.704C124.843 47.984 124.246 49.328 123.435 50.736C122.624 52.144 121.75 53.168 120.811 53.808C119.872 54.448 119.168 54.768 118.699 54.768C118.272 54.768 117.803 54.704 117.291 54.576C116.822 54.448 116.288 54 115.691 53.232C115.008 52.464 114.667 51.3973 114.667 50.032C114.667 48.624 114.88 47.1947 115.307 45.744C116.886 40.9653 118.827 38.4693 121.131 38.256C121.43 37.9147 121.792 37.744 122.219 37.744C122.688 37.744 123.286 37.9573 124.011 38.384C125.291 39.1947 125.995 40.1973 126.123 41.392C126.72 42.1173 127.552 42.48 128.619 42.48ZM121.835 40.432C121.11 40.6027 120.32 41.4347 119.467 42.928C118.614 44.4213 117.974 45.9147 117.547 47.408C117.163 48.9013 116.971 50.1813 116.971 51.248C116.971 52.272 117.355 52.976 118.123 53.36C118.336 53.4453 118.571 53.488 118.827 53.488C119.851 53.488 121.003 52.4853 122.283 50.48C123.008 49.328 123.584 48.048 124.011 46.64C124.438 45.232 124.651 44.336 124.651 43.952C124.651 43.568 124.63 43.312 124.587 43.184C123.776 43.056 123.136 42.7573 122.667 42.288C122.198 41.8187 121.942 41.392 121.899 41.008L121.835 40.432Z" fill="#333333"/>
<rect x="68.15" y="0.15" width="85.7" height="30.7" rx="9.85" stroke="#333333" stroke-width="0.3"/>
<rect x="88.1299" y="4" width="62.9299" height="23" rx="10" transform="rotate(0.323714 88.1299 4)" fill="#333333"/>
<path d="M102.208 18.5454L101.367 18.5407L101.37 18.0485L102.211 18.0532C102.452 18.0546 102.656 17.9646 102.821 17.7832C102.986 17.6019 103.069 17.3608 103.071 17.06L103.113 9.69101L103.605 9.69379L103.563 17.0628C103.561 17.4957 103.429 17.8528 103.168 18.1338C102.906 18.4104 102.586 18.5475 102.208 18.5454ZM102.203 19.5298L101.362 19.525L101.365 19.0328L102.205 19.0376C102.716 19.0405 103.15 18.8492 103.507 18.4639C103.87 18.0786 104.052 17.6125 104.055 17.0656L104.097 9.69657L104.589 9.69935L104.548 17.0684C104.544 17.752 104.313 18.334 103.854 18.8145C103.4 19.295 102.85 19.5334 102.203 19.5298ZM102.197 20.5141L101.356 20.5094L101.359 20.0172L102.2 20.022C102.984 20.0264 103.651 19.7408 104.201 19.1651C104.755 18.5894 105.035 17.8915 105.04 17.0712L105.081 9.70213L105.574 9.70491L105.532 17.0739C105.528 17.6983 105.377 18.2762 105.078 18.8077C104.783 19.3347 104.38 19.7517 103.868 20.0587C103.355 20.3657 102.799 20.5175 102.197 20.5141ZM102.191 21.4985L101.351 21.4937L101.353 21.0016L102.194 21.0063C102.714 21.0092 103.209 20.9072 103.679 20.7002C104.15 20.4933 104.555 20.2153 104.894 19.8663C105.238 19.5127 105.511 19.0927 105.715 18.6062C105.918 18.1198 106.021 17.6099 106.024 17.0767L106.066 9.70769L106.558 9.71047L106.516 17.0795C106.513 17.681 106.396 18.2546 106.165 18.8002C105.938 19.3458 105.63 19.818 105.241 20.2169C104.856 20.6112 104.396 20.923 103.861 21.1525C103.331 21.3864 102.775 21.5018 102.191 21.4985ZM111.547 14.7495C111.162 15.1301 110.968 15.5916 110.965 16.1339C110.962 16.6762 111.151 17.1421 111.531 17.5317C111.917 17.9167 112.38 18.1107 112.923 18.1138C113.465 18.1168 113.929 17.928 114.314 17.5474C114.703 17.1622 114.899 16.6985 114.903 16.1562C114.906 15.6138 114.715 15.1502 114.329 14.7652C113.949 14.3757 113.487 14.1794 112.945 14.1763C112.403 14.1733 111.937 14.3643 111.547 14.7495ZM111.181 17.8783C110.705 17.3926 110.469 16.8102 110.473 16.1311C110.477 15.4521 110.719 14.8747 111.2 14.3989C111.686 13.9185 112.269 13.6803 112.948 13.6841C113.627 13.688 114.204 13.9328 114.68 14.4185C115.16 14.8998 115.399 15.4799 115.395 16.1589C115.391 16.838 115.146 17.4176 114.66 17.898C114.179 18.3738 113.599 18.6098 112.92 18.6059C112.241 18.6021 111.661 18.3596 111.181 17.8783ZM110.854 14.0483C110.276 14.6238 109.985 15.3172 109.981 16.1283C109.976 16.9395 110.259 17.6361 110.83 18.2181C111.406 18.8002 112.101 19.0935 112.917 19.0981C113.733 19.1027 114.429 18.8173 115.007 18.2417C115.589 17.6662 115.882 16.9729 115.887 16.1617C115.891 15.3505 115.606 14.6539 115.031 14.0719C114.46 13.4899 113.766 13.1966 112.951 13.192C112.135 13.1873 111.436 13.4728 110.854 14.0483ZM109.937 17.8576C109.634 17.3273 109.485 16.7499 109.489 16.1256C109.492 15.5012 109.648 14.9256 109.956 14.3987C110.269 13.8718 110.691 13.4572 111.221 13.1548C111.752 12.8479 112.329 12.6962 112.953 12.6998C113.578 12.7033 114.153 12.8615 114.68 13.1744C115.207 13.4827 115.622 13.902 115.924 14.4324C116.231 14.9628 116.383 15.5402 116.379 16.1645C116.376 16.7888 116.217 17.3645 115.904 17.8913C115.596 18.4183 115.177 18.8352 114.646 19.1421C114.116 19.4444 113.539 19.5938 112.914 19.5903C112.29 19.5868 111.714 19.4308 111.187 19.1225C110.661 18.8096 110.244 18.388 109.937 17.8576ZM109.313 14.6001C109.105 15.082 108.999 15.5896 108.996 16.1228C108.993 16.656 109.093 17.167 109.295 17.6558C109.502 18.14 109.78 18.5608 110.129 18.9183C110.483 19.2712 110.9 19.5538 111.382 19.7662C111.869 19.974 112.378 20.0795 112.912 20.0825C113.445 20.0855 113.953 19.9858 114.438 19.7835C114.927 19.5766 115.347 19.2987 115.7 18.9498C116.058 18.5963 116.34 18.1786 116.548 17.6967C116.761 17.2103 116.868 16.7005 116.871 16.1673C116.874 15.6341 116.772 15.1254 116.565 14.6411C116.363 14.1523 116.085 13.7315 115.732 13.3786C115.383 13.0211 114.965 12.7385 114.479 12.5307C113.997 12.3183 113.489 12.2106 112.956 12.2076C112.423 12.2046 111.912 12.3065 111.423 12.5134C110.939 12.7157 110.518 12.9936 110.161 13.3471C109.808 13.696 109.525 14.1137 109.313 14.6001ZM108.843 17.8446C108.614 17.2964 108.501 16.7216 108.504 16.12C108.508 15.5185 108.627 14.9449 108.863 14.3993C109.103 13.8538 109.42 13.3862 109.814 12.9965C110.213 12.6023 110.686 12.2905 111.234 12.0611C111.782 11.8273 112.357 11.712 112.959 11.7154C113.56 11.7188 114.134 11.8405 114.679 12.0806C115.225 12.3161 115.693 12.6332 116.082 13.0319C116.477 13.4261 116.788 13.8972 117.018 14.4454C117.252 14.9936 117.367 15.5685 117.363 16.1701C117.36 16.7716 117.238 17.3452 116.998 17.8907C116.763 18.4362 116.446 18.9061 116.047 19.3004C115.653 19.6901 115.182 20.0019 114.633 20.2358C114.085 20.4651 113.51 20.578 112.909 20.5747C112.307 20.5713 111.734 20.4518 111.188 20.2163C110.643 19.9762 110.173 19.6591 109.778 19.265C109.389 18.8663 109.077 18.3928 108.843 17.8446ZM108.412 14.2122C108.149 14.8169 108.016 15.4519 108.012 16.1172C108.008 16.7826 108.135 17.4213 108.391 18.0335C108.647 18.641 108.993 19.1671 109.428 19.6116C109.867 20.0516 110.39 20.4032 110.994 20.6664C111.603 20.9296 112.241 21.0631 112.906 21.0668C113.571 21.0706 114.208 20.9443 114.815 20.688C115.428 20.4317 115.954 20.086 116.394 19.651C116.838 19.2114 117.192 18.6893 117.455 18.0847C117.718 17.4755 117.852 16.8382 117.856 16.1728C117.859 15.5075 117.733 14.871 117.477 14.2634C117.22 13.6513 116.872 13.1252 116.433 12.6853C115.998 12.2407 115.476 11.8869 114.867 11.6237C114.262 11.3605 113.627 11.227 112.962 11.2232C112.296 11.2195 111.658 11.3458 111.045 11.6021C110.438 11.8584 109.912 12.2063 109.467 12.6459C109.027 13.0809 108.676 13.603 108.412 14.2122ZM107.939 18.2223C107.655 17.5508 107.516 16.8482 107.52 16.1144C107.524 15.3807 107.671 14.682 107.962 14.0183C108.253 13.35 108.642 12.7757 109.127 12.2953C109.613 11.815 110.19 11.4332 110.857 11.1498C111.528 10.8665 112.231 10.7269 112.964 10.7311C113.698 10.7352 114.397 10.8827 115.061 11.1736C115.729 11.4645 116.303 11.8528 116.784 12.3386C117.264 12.8244 117.646 13.4031 117.929 14.0746C118.212 14.7416 118.352 15.4419 118.348 16.1756C118.344 16.9093 118.196 17.6103 117.905 18.2786C117.614 18.9424 117.226 19.5144 116.74 19.9947C116.254 20.4751 115.676 20.8569 115.004 21.1402C114.337 21.4236 113.637 21.5632 112.903 21.559C112.17 21.5549 111.469 21.4073 110.8 21.1165C110.137 20.8256 109.564 20.4373 109.084 19.9515C108.604 19.4657 108.222 18.8893 107.939 18.2223ZM127.166 16.1708L127.153 16.1638C127.67 15.6655 127.931 15.0562 127.935 14.3362C127.939 13.6526 127.688 13.0587 127.18 12.5546C126.677 12.0459 126.079 11.7895 125.386 11.7856L119.972 11.755L119.92 21.1065L119.427 21.1037L119.483 11.2601L125.389 11.2935C125.927 11.2965 126.43 11.4383 126.898 11.719C127.37 11.9951 127.744 12.3686 128.019 12.8396C128.295 13.306 128.431 13.8058 128.428 14.339C128.424 15.0681 128.224 15.6937 127.829 16.2155C128.218 16.76 128.411 17.3581 128.407 18.0098C128.403 18.6342 128.259 19.1848 127.974 19.6617C127.689 20.1341 127.315 20.4897 126.853 20.7286C126.396 20.9676 125.89 21.0855 125.334 21.0824L122.224 21.0648L122.226 20.5726L125.337 20.5902C126.038 20.5941 126.641 20.3492 127.146 19.8553C127.654 19.3568 127.911 18.7408 127.915 18.007C127.917 17.6698 127.846 17.3367 127.702 17.0078C127.558 16.6788 127.377 16.4021 127.159 16.1776C127.159 16.173 127.162 16.1707 127.166 16.1708ZM125.348 18.6215L122.237 18.6039L122.235 19.0961L125.345 19.1136C125.646 19.1153 125.902 19.0165 126.112 18.8172C126.328 18.6133 126.436 18.3405 126.438 17.9987C126.44 17.7025 126.332 17.4421 126.114 17.2176C125.897 16.9885 125.645 16.8731 125.358 16.8715L122.241 16.8539L122.238 17.3461L125.355 17.3637C125.51 17.3645 125.646 17.4291 125.764 17.5574C125.886 17.6857 125.947 17.8319 125.946 17.9959C125.945 18.1964 125.887 18.3511 125.773 18.4598C125.658 18.5685 125.516 18.6224 125.348 18.6215ZM125.342 19.6058L122.232 19.5882L122.229 20.0804L125.339 20.098C125.905 20.1012 126.391 19.9034 126.799 19.5047C127.211 19.1014 127.419 18.6013 127.423 18.0043C127.425 17.626 127.324 17.27 127.121 16.9361C126.922 16.5978 126.657 16.3365 126.326 16.1523C126.659 15.981 126.927 15.7365 127.13 15.4186C127.336 15.0962 127.441 14.7345 127.443 14.3334C127.446 13.7866 127.242 13.3092 126.829 12.9012C126.421 12.4888 125.94 12.281 125.384 12.2778L120.462 12.25L120.412 21.1092L120.904 21.112L120.951 12.745L125.381 12.77C125.8 12.7724 126.166 12.9317 126.479 13.2479C126.796 13.5596 126.953 13.9205 126.951 14.3306C126.949 14.7864 126.791 15.1615 126.48 15.4559C126.168 15.7458 125.796 15.8896 125.363 15.8871L123.859 15.8786L122.253 15.8696L122.25 16.3617L123.857 16.3708L125.36 16.3793C125.78 16.3817 126.146 16.5455 126.458 16.8709C126.775 17.1962 126.933 17.5731 126.93 18.0015C126.928 18.4754 126.771 18.8619 126.459 19.161C126.147 19.46 125.775 19.6083 125.342 19.6058ZM125.369 14.9028L122.258 14.8852L122.256 15.3774L125.366 15.3949C125.671 15.3967 125.929 15.3024 126.14 15.1122C126.351 14.9174 126.457 14.656 126.459 14.3279C126.461 14.0499 126.353 13.8032 126.135 13.5877C125.917 13.3723 125.665 13.2638 125.378 13.2622L121.441 13.2399L121.396 21.1148L121.888 21.1176L121.93 13.7349L125.375 13.7544C125.53 13.7552 125.667 13.8152 125.784 13.9344C125.907 14.049 125.968 14.1793 125.967 14.3251C125.966 14.5119 125.908 14.6552 125.793 14.7548C125.679 14.8544 125.537 14.9037 125.369 14.9028ZM134.069 16.5037L133.29 16.4993C132.333 16.4939 131.598 16.2961 131.085 15.9058C130.572 15.511 130.318 14.9717 130.322 14.2882C130.325 13.6502 130.631 13.121 131.24 12.7006C131.848 12.2756 132.699 12.0662 133.793 12.0724C134.522 12.0765 135.201 12.1806 135.828 12.3847C136.461 12.5888 136.986 12.8743 137.403 13.2412L137.018 13.5467C136.646 13.2392 136.178 12.9996 135.614 12.8278C135.05 12.656 134.442 12.5683 133.79 12.5646C132.829 12.5591 132.092 12.719 131.58 13.0443C131.072 13.3695 130.817 13.7851 130.814 14.2909C130.811 14.8378 131.016 15.2605 131.429 15.5591C131.846 15.8531 132.467 16.0025 133.292 16.0071L134.044 16.0114C135.015 16.0169 135.757 16.217 136.269 16.6118C136.787 17.0021 137.044 17.5391 137.04 18.2227C137.036 18.8607 136.73 19.3922 136.121 19.8171C135.513 20.2375 134.662 20.4446 133.568 20.4384C132.839 20.4343 132.158 20.3302 131.526 20.1261C130.898 19.922 130.376 19.6365 129.958 19.2696L130.343 18.9641C130.715 19.2716 131.183 19.5112 131.747 19.683C132.311 19.8548 132.919 19.9426 133.571 19.9463C134.532 19.9517 135.267 19.7918 135.775 19.4665C136.287 19.1413 136.545 18.7257 136.547 18.2199C136.551 17.673 136.343 17.2526 135.926 16.9585C135.513 16.66 134.894 16.5084 134.069 16.5037ZM134.063 17.4881L133.284 17.4837C132.017 17.4765 131.041 17.1839 130.356 16.6058C129.671 16.0231 129.332 15.2487 129.337 14.2826C129.34 13.8406 129.44 13.4264 129.638 13.0401C129.836 12.6539 130.118 12.316 130.485 12.0264C130.856 11.7322 131.326 11.5025 131.897 11.3371C132.467 11.1671 133.101 11.0841 133.799 11.088C134.678 11.093 135.5 11.2321 136.264 11.5053C137.028 11.7739 137.664 12.149 138.172 12.6303L137.774 12.922C137.311 12.5002 136.732 12.1733 136.036 11.9415C135.34 11.7051 134.593 11.5847 133.796 11.5802C132.565 11.5733 131.598 11.8276 130.893 12.3431C130.188 12.8587 129.834 13.5061 129.829 14.2854C129.825 15.1102 130.122 15.7659 130.721 16.2524C131.319 16.7388 132.175 16.9852 133.287 16.9915L134.039 16.9957C135.388 17.0034 136.06 17.4105 136.055 18.2171C136.053 18.5817 135.844 18.8813 135.428 19.1159C135.017 19.346 134.399 19.4587 133.574 19.4541C132.995 19.4508 132.458 19.3817 131.962 19.2467C131.466 19.1072 131.057 18.9112 130.734 18.6587L131.126 18.3602C131.693 18.7553 132.51 18.9559 133.576 18.9619C134.26 18.9658 134.762 18.898 135.082 18.7585C135.401 18.619 135.562 18.4376 135.563 18.2143C135.565 17.9546 135.454 17.7694 135.231 17.6587C135.009 17.5481 134.619 17.4912 134.063 17.4881ZM134.074 15.5193L133.295 15.5149C131.964 15.5074 131.301 15.1004 131.306 14.2937C131.308 13.9291 131.515 13.6318 131.926 13.4017C132.342 13.1671 132.963 13.0521 133.788 13.0568C134.366 13.06 134.904 13.1314 135.4 13.2709C135.896 13.4059 136.305 13.5996 136.627 13.8521L136.236 14.1507C135.668 13.7555 134.851 13.555 133.785 13.5489C133.101 13.5451 132.599 13.6129 132.28 13.7523C131.96 13.8918 131.799 14.0732 131.798 14.2965C131.797 14.5563 131.907 14.7415 132.13 14.8521C132.353 14.9627 132.742 15.0196 133.298 15.0228L134.077 15.0272C135.344 15.0343 136.32 15.3292 137.005 15.9119C137.69 16.49 138.029 17.2621 138.024 18.2282C138.022 18.6703 137.921 19.0844 137.723 19.4707C137.525 19.8569 137.24 20.1971 136.87 20.4913C136.503 20.7809 136.035 21.0107 135.464 21.1806C134.894 21.346 134.26 21.4267 133.563 21.4228C132.683 21.4178 131.861 21.281 131.097 21.0124C130.333 20.7392 129.697 20.3619 129.189 19.8805L129.587 19.5888C130.05 20.0107 130.629 20.3398 131.325 20.5762C132.021 20.808 132.768 20.9261 133.565 20.9306C134.796 20.9376 135.763 20.6833 136.468 20.1677C137.173 19.6522 137.527 19.0047 137.532 18.2254C137.536 17.4006 137.239 16.7449 136.641 16.2585C136.042 15.772 135.186 15.5256 134.074 15.5193Z" fill="white"/>
<path d="M79.5 11L80.7348 14.8004H84.7308L81.498 17.1492L82.7328 20.9496L79.5 18.6008L76.2672 20.9496L77.502 17.1492L74.2692 14.8004H78.2652L79.5 11Z" fill="#333333"/>
</svg>
