<svg width="132" height="48" viewBox="0 0 132 48" fill="none" xmlns="http://www.w3.org/2000/svg">
<path d="M3.728 38.872C3.728 41.688 5.47733 43.096 8.976 43.096C10 43.096 11.0667 42.9467 12.176 42.648C16.912 38.6373 20.496 33.048 22.928 25.88C24.2933 21.9973 24.976 18.584 24.976 15.64C24.976 12.6533 24.4853 10.0293 23.504 7.768C19.2373 6.78666 16.5493 6.25333 15.44 6.168C14.3733 6.04 13.2853 5.976 12.176 5.976C11.0667 5.976 9.91467 6.232 8.72 6.744C8.29333 7.98133 8.08 9.09067 8.08 10.072C8.08 13.1867 8.67733 15.6827 9.872 17.56C10.128 17.6027 10.4907 17.624 10.96 17.624C13.8187 17.624 16.3147 16.984 18.448 15.704C20.5813 14.424 21.904 13.1227 22.416 11.8C22.544 11.3733 22.6933 11.2667 22.864 11.48C23.0773 11.6507 23.12 11.8853 22.992 12.184C22.3947 13.8053 21.0293 15.2987 18.896 16.664C16.8053 18.0293 14.2453 18.712 11.216 18.712C11.1307 18.712 11.0453 18.712 10.96 18.712H10.704C11.9413 20.0773 13.456 20.824 15.248 20.952C15.4187 20.952 15.4827 21.016 15.44 21.144C15.44 21.272 15.3547 21.336 15.184 21.336C13.0933 21.208 11.344 20.312 9.936 18.648C7.67467 18.4347 5.81867 17.6667 4.368 16.344C2.74667 14.808 1.936 13.2507 1.936 11.672C1.936 10.0933 2.512 8.62133 3.664 7.256C4.816 5.89067 6.62933 4.99467 9.104 4.568C10.4267 2.47733 12.2187 1.19733 14.48 0.727997C14.8213 0.685331 15.312 0.663998 15.952 0.663998C16.6347 0.663998 17.6373 0.919998 18.96 1.432C20.3253 1.90133 21.6053 2.94666 22.8 4.568C23.184 5.16533 23.5893 5.82666 24.016 6.552C29.8187 8.04533 33.1253 8.87733 33.936 9.048C35.7707 6.53067 37.6053 5.12267 39.44 4.824C39.696 4.78133 39.824 4.84533 39.824 5.016C39.7813 5.35733 39.568 5.57067 39.184 5.656C37.9467 5.86933 36.7093 7.08533 35.472 9.304C37.392 9.64533 39.184 9.816 40.848 9.816C45.1147 9.816 48.464 8.74933 50.896 6.616C51.1947 6.40266 51.344 6.46666 51.344 6.808C51.344 7.14933 51.1947 7.42666 50.896 7.64C48.6773 9.60266 45.3067 10.584 40.784 10.584C39.0347 10.584 37.1147 10.4347 35.024 10.136C34.256 11.7147 33.104 14.6373 31.568 18.904C30.032 23.128 28.816 26.2427 27.92 28.248C23.824 37.5493 18.384 42.712 11.6 43.736C8.528 46.04 5.54133 47.192 2.64 47.192C1.44533 47.192 0.848 47.0853 0.848 46.872C0.848 46.6587 1.04 46.5733 1.424 46.616C1.76533 46.6587 2.192 46.68 2.704 46.68C5.30667 46.68 7.93067 45.7413 10.576 43.864C10.2347 43.9067 9.70133 43.928 8.976 43.928C5.648 43.928 3.6 42.7333 2.832 40.344C2.61867 39.704 2.512 39.064 2.512 38.424C2.512 36.632 3.30133 34.712 4.88 32.664C8.08 28.5253 12.9013 26.1147 19.344 25.432C19.6 25.3893 19.728 25.496 19.728 25.752C19.6853 26.008 19.536 26.1787 19.28 26.264C14.032 27.0747 9.82933 29.2507 6.672 32.792C4.70933 34.968 3.728 36.9947 3.728 38.872ZM24.656 8.024C25.424 10.1573 25.808 12.6533 25.808 15.512C25.808 18.3707 25.1467 21.72 23.824 25.56C21.52 32.4293 18.1067 37.9547 13.584 42.136C17.7653 40.3013 21.6267 35.3947 25.168 27.416C25.6373 26.3493 26.4693 24.408 27.664 21.592C30.096 15.8747 31.9947 11.9707 33.36 9.88C30.3307 9.368 27.4293 8.74933 24.656 8.024ZM21.968 5.08C20.816 3.544 19.6213 2.52 18.384 2.008C17.1467 1.496 16.2507 1.24 15.696 1.24C13.136 1.24 11.1733 2.30666 9.808 4.44C10.5333 4.35466 11.3227 4.312 12.176 4.312C14.5653 4.312 18.0853 4.93066 22.736 6.168L21.968 5.08ZM9.04 17.432C7.888 15.5547 7.312 13.4 7.312 10.968C7.312 9.64533 7.52533 8.344 7.952 7.064C5.60533 8.17333 4.432 9.85867 4.432 12.12C4.432 13.016 4.70933 13.912 5.264 14.808C6.07467 16.1307 7.33333 17.0053 9.04 17.432ZM38.5995 29.912C37.3622 31.576 36.4875 33.0267 35.9755 34.264C35.4635 35.5013 35.2075 36.4187 35.2075 37.016C35.2075 37.6133 35.3995 37.912 35.7835 37.912C36.9355 37.912 39.2608 35.352 42.7595 30.232C44.1248 28.4827 44.8075 28.504 44.8075 30.296C44.7222 31.4053 44.6795 32.344 44.6795 33.112C44.6795 36.3547 45.3622 37.976 46.7275 37.976C48.1782 37.976 49.9488 36.8027 52.0395 34.456C52.1675 34.328 52.3168 34.4133 52.4875 34.712C52.3595 35.0107 51.9115 35.544 51.1435 36.312C50.4182 37.0373 49.5008 37.6987 48.3915 38.296C47.2822 38.8933 46.4288 39.192 45.8315 39.192C45.2768 39.192 44.8288 39.128 44.4875 39C42.9088 38.4453 42.1195 36.2693 42.1195 32.472C40.4128 35.16 39.1755 36.8667 38.4075 37.592C37.2128 38.7013 36.2315 39.256 35.4635 39.256C35.4208 39.256 35.3568 39.256 35.2715 39.256C33.8635 39.0427 33.1595 38.104 33.1595 36.44C33.1595 34.7333 33.6928 32.856 34.7595 30.808C35.8688 28.7173 37.3195 26.84 39.1115 25.176C40.9035 23.512 42.6955 22.68 44.4875 22.68C45.3408 22.68 46.1728 22.8933 46.9835 23.32C47.7088 23.7467 48.0715 24.4293 48.0715 25.368C48.0715 26.264 47.6662 26.776 46.8555 26.904C47.1542 26.392 47.3035 25.9227 47.3035 25.496C47.3035 25.0267 47.0902 24.6853 46.6635 24.472C46.2368 24.2587 45.8528 24.152 45.5115 24.152C43.6768 24.152 41.3728 26.072 38.5995 29.912ZM57.707 19.352C58.0057 19.352 58.155 19.4587 58.155 19.672C58.155 19.8427 57.899 20.2267 57.387 20.824C56.2777 22.1893 55.1897 22.4453 54.123 21.592C53.9523 21.464 53.931 21.336 54.059 21.208C55.5523 19.9707 56.7683 19.352 57.707 19.352ZM52.779 35.608C52.779 36.888 53.163 37.528 53.931 37.528C54.3577 37.528 55.403 36.8453 57.067 35.48C58.7737 34.072 59.691 33.304 59.819 33.176C59.947 33.048 60.0537 33.0267 60.139 33.112C60.2243 33.1547 60.267 33.2187 60.267 33.304C60.267 33.3467 60.2457 33.4107 60.203 33.496C59.563 34.5627 58.219 35.8427 56.171 37.336C54.8057 38.4453 53.6537 39 52.715 39C51.2643 39 50.539 37.7627 50.539 35.288C50.539 34.8187 50.5817 34.1573 50.667 33.304C50.7523 32.408 51.435 29.6987 52.715 25.176C52.8003 24.8347 53.2697 24.664 54.123 24.664C55.019 24.664 55.467 24.92 55.467 25.432C55.467 25.9013 55.2963 26.5413 54.955 27.352C54.6563 28.12 54.2937 28.5467 53.867 28.632C53.6537 28.6747 53.419 29.7413 53.163 31.832C52.907 33.9227 52.779 35.1813 52.779 35.608ZM72.4015 34.904C72.4015 37.5493 73.0842 38.872 74.4495 38.872C75.3882 38.872 76.3268 38.296 77.2655 37.144C78.8015 35.096 79.5695 32.856 79.5695 30.424C79.5695 29.8693 79.5268 29.336 79.4415 28.824L78.6735 27.736C78.2042 27.0533 77.9695 26.5413 77.9695 26.2C78.0122 25.8587 78.1188 25.5173 78.2895 25.176C78.4602 24.8347 78.9082 24.664 79.6335 24.664C80.4015 24.664 80.9135 24.9413 81.1695 25.496C81.5535 26.392 83.0042 26.84 85.5215 26.84L87.3135 26.712C87.5695 26.6693 87.6975 26.6907 87.6975 26.776C87.6975 27.0747 86.8442 27.416 85.1375 27.8L84.1135 27.992C84.0282 27.992 83.8148 27.992 83.4735 27.992C83.1322 27.992 82.3642 27.9067 81.1695 27.736C81.2975 28.4613 81.3615 29.4 81.3615 30.552C81.3615 31.6613 81.0842 32.9627 80.5295 34.456C80.0175 35.9067 79.2282 37.1227 78.1615 38.104C75.6015 40.408 73.4682 40.6213 71.7615 38.744C70.8228 37.72 70.2682 36.0987 70.0975 33.88C69.9695 31.8747 69.9482 30.7867 70.0335 30.616C69.1375 32.6213 67.9002 34.7333 66.3215 36.952C64.7855 39 63.1855 40.024 61.5215 40.024C59.9002 40.024 59.0895 39.1493 59.0895 37.4C59.0895 35.352 59.9428 32.5147 61.6495 28.888C62.2895 27.608 62.8655 26.584 63.3775 25.816C63.8895 25.048 64.6575 24.664 65.6815 24.664C66.7908 24.664 67.0682 24.984 66.5135 25.624C65.0628 27.2453 63.8895 29.4 62.9935 32.088C62.1402 34.776 61.7135 36.5467 61.7135 37.4C61.7135 38.2533 61.9695 38.68 62.4815 38.68C63.2068 38.68 64.2522 37.8693 65.6175 36.248C66.9828 34.6267 68.3268 32.344 69.6495 29.4C69.8202 29.016 69.8415 28.3973 69.7135 27.544C69.7988 26.8187 70.3962 26.392 71.5055 26.264C72.4868 26.2213 72.9775 26.4987 72.9775 27.096C72.9775 27.1813 72.9135 27.8213 72.7855 29.016C72.5295 31.448 72.4015 33.4107 72.4015 34.904ZM93.408 23.64L99.296 23.768C99.552 23.768 99.7867 23.832 100 23.96C100.213 24.088 100.32 24.2373 100.32 24.408C100.32 24.92 99.936 25.5387 99.168 26.264C98.4427 26.9467 97.7813 27.3307 97.184 27.416C91.5093 32.2373 88.16 35.6507 87.136 37.656C91.6587 37.1013 94.5387 36.824 95.776 36.824C97.056 36.824 97.9093 36.9947 98.336 37.336C98.7627 37.6347 98.912 37.9973 98.784 38.424C98.656 38.8507 98.4427 39.2773 98.144 39.704C97.8453 40.1733 97.504 40.5573 97.12 40.856C96.7787 41.1973 96.5227 41.368 96.352 41.368C96.1813 41.368 96.096 41.2827 96.096 41.112C96.096 40.984 96.3093 40.7067 96.736 40.28C97.1627 39.896 97.3547 39.576 97.312 39.32C97.2267 38.8507 96.1813 38.616 94.176 38.616C92.1707 38.616 90.208 38.7013 88.288 38.872C86.4107 39.0427 85.4507 39.128 85.408 39.128H84.96C84.6187 38.9147 84.448 38.6587 84.448 38.36C84.448 38.0613 84.512 37.8267 84.64 37.656C84.9387 36.9733 85.8987 35.8 87.52 34.136C89.184 32.4293 90.9973 30.616 92.96 28.696C94.9227 26.7333 96.16 25.4747 96.672 24.92C95.9467 24.792 95.2213 24.728 94.496 24.728C91.808 24.728 89.888 25.304 88.736 26.456C88.0107 27.224 87.52 27.608 87.264 27.608C87.136 27.608 87.072 27.5013 87.072 27.288C87.712 25.752 88.4373 24.664 89.248 24.024C90.3147 23.768 91.7013 23.64 93.408 23.64ZM113.557 27.48L116.565 27.16C116.693 27.16 116.757 27.2027 116.757 27.288C116.757 27.3733 116.693 27.48 116.565 27.608L116.053 28.056C115.029 28.5253 113.983 28.76 112.917 28.76C111.85 28.76 111.146 28.6747 110.805 28.504C110.805 28.5893 110.805 28.824 110.805 29.208C110.805 29.592 110.591 30.424 110.165 31.704C109.781 32.984 109.183 34.328 108.373 35.736C107.562 37.144 106.687 38.168 105.749 38.808C104.81 39.448 104.106 39.768 103.637 39.768C103.21 39.768 102.741 39.704 102.229 39.576C101.759 39.448 101.226 39 100.629 38.232C99.9458 37.464 99.6045 36.3973 99.6045 35.032C99.6045 33.624 99.8178 32.1947 100.245 30.744C101.823 25.9653 103.765 23.4693 106.069 23.256C106.367 22.9147 106.73 22.744 107.157 22.744C107.626 22.744 108.223 22.9573 108.949 23.384C110.229 24.1947 110.933 25.1973 111.061 26.392C111.658 27.1173 112.49 27.48 113.557 27.48ZM106.773 25.432C106.047 25.6027 105.258 26.4347 104.405 27.928C103.551 29.4213 102.911 30.9147 102.485 32.408C102.101 33.9013 101.909 35.1813 101.909 36.248C101.909 37.272 102.293 37.976 103.061 38.36C103.274 38.4453 103.509 38.488 103.765 38.488C104.789 38.488 105.941 37.4853 107.22 35.48C107.946 34.328 108.522 33.048 108.949 31.64C109.375 30.232 109.589 29.336 109.589 28.952C109.589 28.568 109.567 28.312 109.525 28.184C108.714 28.056 108.074 27.7573 107.605 27.288C107.135 26.8187 106.879 26.392 106.837 26.008L106.773 25.432ZM128.619 27.48L131.627 27.16C131.755 27.16 131.819 27.2027 131.819 27.288C131.819 27.3733 131.755 27.48 131.627 27.608L131.115 28.056C130.091 28.5253 129.046 28.76 127.979 28.76C126.912 28.76 126.208 28.6747 125.867 28.504C125.867 28.5893 125.867 28.824 125.867 29.208C125.867 29.592 125.654 30.424 125.227 31.704C124.843 32.984 124.246 34.328 123.435 35.736C122.624 37.144 121.75 38.168 120.811 38.808C119.872 39.448 119.168 39.768 118.699 39.768C118.272 39.768 117.803 39.704 117.291 39.576C116.822 39.448 116.288 39 115.691 38.232C115.008 37.464 114.667 36.3973 114.667 35.032C114.667 33.624 114.88 32.1947 115.307 30.744C116.886 25.9653 118.827 23.4693 121.131 23.256C121.43 22.9147 121.792 22.744 122.219 22.744C122.688 22.744 123.286 22.9573 124.011 23.384C125.291 24.1947 125.995 25.1973 126.123 26.392C126.72 27.1173 127.552 27.48 128.619 27.48ZM121.835 25.432C121.11 25.6027 120.32 26.4347 119.467 27.928C118.614 29.4213 117.974 30.9147 117.547 32.408C117.163 33.9013 116.971 35.1813 116.971 36.248C116.971 37.272 117.355 37.976 118.123 38.36C118.336 38.4453 118.571 38.488 118.827 38.488C119.851 38.488 121.003 37.4853 122.283 35.48C123.008 34.328 123.584 33.048 124.011 31.64C124.438 30.232 124.651 29.336 124.651 28.952C124.651 28.568 124.63 28.312 124.587 28.184C123.776 28.056 123.136 27.7573 122.667 27.288C122.198 26.8187 121.942 26.392 121.899 26.008L121.835 25.432Z" fill="#333333"/>
</svg>
